<svg width="32" height="32" viewBox="0 0 32 32" fill="none" xmlns="http://www.w3.org/2000/svg">
<g clip-path="url(#clip0_890_653)">
<path d="M11.1188 8.98904C11.1188 9.96361 10.3279 10.7546 9.35328 10.7546C8.37871 10.7546 7.58775 9.96361 7.58775 8.98904C7.58775 8.01446 8.37871 7.2235 9.35328 7.2235C10.3279 7.2235 11.1188 8.01446 11.1188 8.98904ZM18.2516 10.7546C19.2262 10.7546 20.0171 9.96361 20.0171 8.98904C20.0171 8.01446 19.2262 7.2235 18.2516 7.2235C17.277 7.2235 16.4861 8.01446 16.4861 8.98904C16.4861 9.96361 17.277 10.7546 18.2516 10.7546ZM28.9119 27.8873L29.3109 31.7539L25.7798 29.8647C24.4168 30.4297 22.8985 30.744 21.2918 30.744C16.3095 30.744 12.1322 27.7073 11.0023 23.6147C10.0418 23.4453 9.1167 23.1875 8.241 22.8556L4.23676 24.9989L4.66402 20.8817C1.82504 18.7136 0.03125 15.5498 0.03125 12.0293C0.03125 5.49681 6.1965 0.200195 13.8024 0.200195C21.4084 0.200195 27.5736 5.49681 27.5736 12.0293C27.5736 12.6154 27.5242 13.191 27.4288 13.756C30.1301 15.4509 31.8886 18.2369 31.8886 21.3866C31.8886 23.9114 30.7551 26.2065 28.9119 27.8873ZM8.86953 21.203C9.46981 21.429 10.0842 21.6126 10.7092 21.7539C10.7022 21.6303 10.6986 21.5102 10.6986 21.3866C10.6986 16.2171 15.4409 12.0293 21.2918 12.0293C22.8879 12.0293 24.4027 12.34 25.7586 12.9015C25.7869 12.6154 25.8046 12.3224 25.8046 12.0293C25.8046 6.48197 20.4197 1.96573 13.7989 1.96573C7.17814 1.96573 1.79326 6.48197 1.79326 12.0293C1.79326 13.4558 2.14283 14.8365 2.83492 16.1324C3.51642 17.4071 4.491 18.5335 5.73393 19.4799L6.52136 20.0801L6.41896 21.0653L6.33422 21.8739L7.40413 21.3019L8.11388 20.9241L8.86953 21.203ZM27.0228 13.5123C27.0549 13.5436 27.0906 13.5811 27.1228 13.6123C27.0871 13.5811 27.0549 13.5436 27.0228 13.5123ZM26.6132 13.3028C26.6495 13.3228 26.6768 13.3428 26.7132 13.3628C26.6768 13.3428 26.6404 13.3228 26.6132 13.3028ZM26.2188 13.1177C26.2288 13.1177 26.2288 13.1277 26.2388 13.1277C26.2388 13.1177 26.2288 13.1177 26.2188 13.1177ZM30.1231 21.3866C30.1231 17.1988 26.1647 13.7948 21.2954 13.7948C16.426 13.7948 12.4677 17.1988 12.4677 21.3866C12.4677 25.5745 16.426 28.9784 21.2954 28.9784C22.6301 28.9784 23.9119 28.7277 25.1054 28.2334L25.8787 27.9156L26.6167 28.3111L27.2135 28.6324L27.157 28.0745L27.0651 27.1882L27.7219 26.5879C29.2685 25.1684 30.1231 23.3217 30.1231 21.3866ZM17.9055 18.0816C17.1252 18.0816 16.4931 18.7136 16.4931 19.494C16.4931 20.2743 17.1252 20.9064 17.9055 20.9064C18.6859 20.9064 19.318 20.2743 19.318 19.494C19.318 18.7136 18.6859 18.0816 17.9055 18.0816ZM24.6852 18.0816C23.9048 18.0816 23.2728 18.7136 23.2728 19.494C23.2728 20.2743 23.9048 20.9064 24.6852 20.9064C25.4656 20.9064 26.0976 20.2743 26.0976 19.494C26.0976 18.7136 25.4656 18.0816 24.6852 18.0816Z" fill="#363022"/>
</g>
<defs>
<clipPath id="clip0_890_653">
<rect width="32" height="32" fill="white"/>
</clipPath>
</defs>
</svg>
