<svg width="38" height="38" viewBox="0 0 38 38" fill="none" xmlns="http://www.w3.org/2000/svg">
<path d="M6.83906 3.04004C4.74943 3.04004 3.03906 4.75041 3.03906 6.84004V31.16C3.03906 33.2497 4.74943 34.96 6.83906 34.96H31.1591C33.2487 34.96 34.9591 33.2497 34.9591 31.16V6.84004C34.9591 4.75041 33.2487 3.04004 31.1591 3.04004H6.83906ZM6.83906 4.56004H11.837C9.20877 7.2946 7.59906 10.886 7.59906 14.82C7.59906 18.8947 9.32285 22.609 12.1205 25.3754C12.0188 25.2785 12.1504 25.447 12.1635 25.745C12.177 26.0527 12.1307 26.4753 12.0062 26.8939C11.7571 27.7312 11.2362 28.5029 10.3986 28.7821C10.2395 28.8351 10.1024 28.9392 10.0087 29.0782C9.91495 29.2173 9.86981 29.3834 9.88031 29.5508C9.89082 29.7181 9.95636 29.8773 10.0668 30.0035C10.1771 30.1297 10.3262 30.2159 10.4906 30.2486C12.588 30.6681 14.0716 30.0366 15.1649 29.5346C16.2583 29.0327 16.849 28.6949 17.9541 29.1413C17.957 29.1423 17.96 29.1433 17.963 29.1443C20.0319 29.953 22.3098 30.4 24.6991 30.4C27.889 30.4 30.8787 29.6029 33.4391 28.2136V31.16C33.4391 32.4281 32.4271 33.44 31.1591 33.44H6.83906C5.57101 33.44 4.55906 32.4281 4.55906 31.16V6.84004C4.55906 5.57199 5.57101 4.56004 6.83906 4.56004ZM14.0561 4.56004H31.1591C32.4271 4.56004 33.4391 5.57199 33.4391 6.84004V26.4516C30.9515 27.9777 27.9478 28.88 24.6991 28.88C22.5028 28.88 20.4154 28.4692 18.5241 27.7311C16.9182 27.0824 15.61 27.6573 14.5311 28.1527C13.9468 28.421 13.3703 28.644 12.7187 28.7672C13.041 28.3076 13.3168 27.8166 13.4623 27.3274C13.6343 26.7493 13.7042 26.1833 13.682 25.6782C13.6599 25.1749 13.6159 24.7139 13.1907 24.2963L13.1892 24.2948C10.6519 21.7857 9.11906 18.4671 9.11906 14.82C9.11906 10.7749 11.0086 7.13464 14.0561 4.56004ZM25.0672 11.3896C24.8659 11.3928 24.674 11.4757 24.5338 11.6201C24.3935 11.7645 24.3163 11.9587 24.3191 12.16V19C24.3176 19.1007 24.3362 19.2007 24.3738 19.2942C24.4114 19.3876 24.4671 19.4727 24.5378 19.5444C24.6085 19.6161 24.6928 19.6731 24.7857 19.712C24.8786 19.7508 24.9783 19.7709 25.0791 19.7709C25.1798 19.7709 25.2795 19.7508 25.3724 19.712C25.4653 19.6731 25.5496 19.6161 25.6203 19.5444C25.691 19.4727 25.7468 19.3876 25.7843 19.2942C25.8219 19.2007 25.8405 19.1007 25.8391 19V12.16C25.8405 12.0584 25.8214 11.9574 25.7831 11.8632C25.7448 11.769 25.688 11.6835 25.616 11.6117C25.544 11.5398 25.4584 11.4832 25.3641 11.445C25.2698 11.4069 25.1689 11.3881 25.0672 11.3896ZM13.6791 12.16C13.5784 12.1586 13.4784 12.1772 13.3849 12.2148C13.2915 12.2523 13.2064 12.3081 13.1347 12.3788C13.063 12.4495 13.006 12.5338 12.9671 12.6267C12.9283 12.7196 12.9082 12.8193 12.9082 12.92C12.9082 13.0208 12.9283 13.1205 12.9671 13.2134C13.006 13.3063 13.063 13.3906 13.1347 13.4613C13.2064 13.532 13.2915 13.5877 13.3849 13.6253C13.4784 13.6629 13.5784 13.6815 13.6791 13.68H16.109L13.0348 18.5978C12.9631 18.7128 12.9235 18.8449 12.92 18.9804C12.9165 19.1159 12.9493 19.2499 13.015 19.3684C13.0807 19.487 13.1769 19.5858 13.2937 19.6547C13.4105 19.7235 13.5435 19.7599 13.6791 19.76H17.4791C17.5798 19.7615 17.6798 19.7429 17.7732 19.7053C17.8667 19.6677 17.9517 19.612 18.0235 19.5413C18.0952 19.4706 18.1521 19.3863 18.191 19.2934C18.2299 19.2005 18.2499 19.1008 18.2499 19C18.2499 18.8993 18.2299 18.7996 18.191 18.7067C18.1521 18.6138 18.0952 18.5295 18.0235 18.4588C17.9517 18.3881 17.8667 18.3323 17.7732 18.2948C17.6798 18.2572 17.5798 18.2386 17.4791 18.24H15.0491L18.1233 13.3223C18.195 13.2073 18.2347 13.0752 18.2382 12.9397C18.2416 12.8042 18.2088 12.6702 18.1431 12.5516C18.0774 12.4331 17.9812 12.3343 17.8644 12.2654C17.7477 12.1965 17.6146 12.1602 17.4791 12.16H13.6791ZM22.7872 14.4296C22.6625 14.4318 22.5403 14.4647 22.4313 14.5253C22.3224 14.5858 22.2299 14.6723 22.1623 14.777C21.7841 14.5693 21.3577 14.44 20.8991 14.44C19.439 14.44 18.2391 15.64 18.2391 17.1C18.2391 18.5601 19.439 19.76 20.8991 19.76C21.3572 19.76 21.7829 19.6304 22.1608 19.4231C22.2503 19.5616 22.3825 19.6672 22.5373 19.724C22.6922 19.7808 22.8613 19.7857 23.0192 19.7379C23.177 19.6901 23.3151 19.5923 23.4125 19.4592C23.5098 19.3261 23.5613 19.165 23.5591 19V17.1V15.2C23.5605 15.0984 23.5414 14.9974 23.5031 14.9032C23.4648 14.809 23.408 14.7235 23.336 14.6517C23.264 14.5798 23.1784 14.5232 23.0841 14.485C22.9898 14.4469 22.8889 14.4281 22.7872 14.4296ZM29.2591 14.44C27.799 14.44 26.5991 15.64 26.5991 17.1C26.5991 18.5601 27.799 19.76 29.2591 19.76C30.7191 19.76 31.9191 18.5601 31.9191 17.1C31.9191 15.64 30.7191 14.44 29.2591 14.44ZM20.8991 15.96C21.5377 15.96 22.0391 16.4614 22.0391 17.1C22.0391 17.7386 21.5377 18.24 20.8991 18.24C20.2605 18.24 19.7591 17.7386 19.7591 17.1C19.7591 16.4614 20.2605 15.96 20.8991 15.96ZM29.2591 15.96C29.8977 15.96 30.3991 16.4614 30.3991 17.1C30.3991 17.7386 29.8977 18.24 29.2591 18.24C28.6205 18.24 28.1191 17.7386 28.1191 17.1C28.1191 16.4614 28.6205 15.96 29.2591 15.96Z" fill="#363022"/>
</svg>
